<?xml version="1.0" encoding="utf-8"?>
<!-- Generator: Adobe Illustrator 27.1.0, SVG Export Plug-In . SVG Version: 6.00 Build 0)  -->
<svg version="1.1" id="Layer_1" xmlns="http://www.w3.org/2000/svg" xmlns:xlink="http://www.w3.org/1999/xlink" x="0px" y="0px"
	 viewBox="0 0 73 73" style="enable-background:new 0 0 73 73;" xml:space="preserve">
<g id="black_line">
	<g>
		<g>
			<path d="M36.5,71.97c-19.56,0-35.47-15.91-35.47-35.47c0-19.56,15.91-35.47,35.47-35.47c19.56,0,35.47,15.91,35.47,35.47
				C71.97,56.06,56.06,71.97,36.5,71.97z M36.5,3.9C18.52,3.9,3.9,18.52,3.9,36.5S18.52,69.1,36.5,69.1S69.1,54.48,69.1,36.5
				S54.48,3.9,36.5,3.9z"/>
		</g>
		<path d="M54.05,34.19L37.64,19.06c-0.65-0.59-1.64-0.59-2.28,0L18.95,34.19c-0.35,0.32-0.54,0.77-0.54,1.24V52.7
			c0,0.93,0.75,1.68,1.68,1.68H31.5c0.93,0,1.68-0.75,1.68-1.68v-7.91c0-1.82,1.48-3.31,3.31-3.31c1.82,0,3.31,1.48,3.31,3.31v7.91
			c0,0.93,0.75,1.68,1.68,1.68h11.42c0.93,0,1.68-0.75,1.68-1.68V35.43C54.59,34.96,54.4,34.51,54.05,34.19z M51.23,51.02h-8.05
			v-6.23c0-3.68-3-6.68-6.68-6.68c-3.68,0-6.68,3-6.68,6.68v6.23h-8.05V36.17L36.5,22.59l14.73,13.58V51.02z"/>
	</g>
</g>
</svg>
