<?xml version="1.0" encoding="utf-8"?>
<!-- Generator: Adobe Illustrator 27.1.0, SVG Export Plug-In . SVG Version: 6.00 Build 0)  -->
<svg version="1.1" id="Layer_1" xmlns="http://www.w3.org/2000/svg" xmlns:xlink="http://www.w3.org/1999/xlink" x="0px" y="0px"
	 viewBox="0 0 71 50" style="enable-background:new 0 0 71 50;" xml:space="preserve">
<style type="text/css">
	.st0{fill:#010101;}
</style>
<path class="st0" d="M40.77,14.46H28.55V2.16c0-0.7-0.41-1.33-1.05-1.61c-0.63-0.28-1.37-0.15-1.89,0.32L1.16,23.71
	C0.81,24.04,0.6,24.51,0.6,25c0,0.49,0.2,0.96,0.56,1.29l24.45,22.84c0.51,0.48,1.25,0.6,1.89,0.32c0.64-0.28,1.05-0.91,1.05-1.61
	v-12.3h8.73c14.65,0,23.9,4.09,29.98,13.27c0.33,0.5,0.88,0.78,1.45,0.78c0.17,0,0.34-0.02,0.51-0.08c0.74-0.22,1.24-0.91,1.24-1.68
	C70.46,32.44,62.68,14.46,40.77,14.46z M37.31,32.14H26.66c-0.98,0-1.77,0.8-1.77,1.79v10.19L4.42,25L24.88,5.88v10.19
	c0,0.99,0.79,1.79,1.77,1.79h14.2c17.07,0,24.57,12.34,26.25,24.76C60.34,35.41,50.89,32.14,37.31,32.14z"/>
</svg>
